<svg xmlns="http://www.w3.org/2000/svg" width="42" height="42" viewBox="0 0 42 42"><defs><style>.a{fill:#73abbf;}</style></defs><path class="a" d="M215.039,211.02a4.02,4.02,0,1,1-4.02-4.02A4.019,4.019,0,0,1,215.039,211.02Zm0,0" transform="translate(-190.02 -190.02)"/><path class="a" d="M154.771,138.263a3.993,3.993,0,0,0-2.289-2.289,6.672,6.672,0,0,0-2.239-.415c-1.272-.058-1.653-.07-4.873-.07s-3.6.012-4.873.07a6.676,6.676,0,0,0-2.239.415,3.995,3.995,0,0,0-2.289,2.289,6.674,6.674,0,0,0-.415,2.239c-.058,1.271-.07,1.653-.07,4.873s.012,3.6.07,4.873a6.671,6.671,0,0,0,.415,2.239,3.993,3.993,0,0,0,2.289,2.289,6.663,6.663,0,0,0,2.239.415c1.271.058,1.652.07,4.873.07s3.6-.012,4.873-.07a6.663,6.663,0,0,0,2.239-.415,3.993,3.993,0,0,0,2.289-2.289,6.677,6.677,0,0,0,.415-2.239c.058-1.272.07-1.653.07-4.873s-.012-3.6-.07-4.873A6.663,6.663,0,0,0,154.771,138.263Zm-9.4,13.3a6.192,6.192,0,1,1,6.192-6.192A6.192,6.192,0,0,1,145.371,151.566Zm6.437-11.182a1.447,1.447,0,1,1,1.447-1.447A1.447,1.447,0,0,1,151.808,140.385Zm0,0" transform="translate(-124.371 -124.374)"/><path class="a" d="M21,0A21,21,0,1,0,42,21,21,21,0,0,0,21,0ZM32.986,25.972a8.847,8.847,0,0,1-.56,2.927A6.166,6.166,0,0,1,28.9,32.425a8.853,8.853,0,0,1-2.927.56c-1.286.059-1.7.073-4.972.073s-3.686-.014-4.972-.073a8.853,8.853,0,0,1-2.927-.56A6.166,6.166,0,0,1,9.575,28.9a8.845,8.845,0,0,1-.56-2.927c-.059-1.286-.073-1.7-.073-4.972s.014-3.686.073-4.972a8.848,8.848,0,0,1,.56-2.927A6.17,6.17,0,0,1,13.1,9.575a8.855,8.855,0,0,1,2.927-.56c1.286-.059,1.7-.073,4.972-.073s3.686.014,4.972.073a8.857,8.857,0,0,1,2.927.56A6.168,6.168,0,0,1,32.425,13.1a8.846,8.846,0,0,1,.561,2.927c.059,1.286.072,1.7.072,4.972S33.045,24.686,32.986,25.972Zm0,0"/></svg>