<svg xmlns="http://www.w3.org/2000/svg" width="42" height="42" viewBox="0 0 42 42"><defs><style>.a{fill:#73abbf;}</style></defs><path class="a" d="M224.113,215.908l6.831-3.934-6.831-3.934Zm0,0" transform="translate(-205.729 -190.973)"/><path class="a" d="M21,0A21,21,0,1,0,42,21,21,21,0,0,0,21,0ZM34.122,21.021a34.66,34.66,0,0,1-.54,6.313,3.288,3.288,0,0,1-2.313,2.313c-2.054.541-10.268.541-10.268.541s-8.193,0-10.268-.562a3.289,3.289,0,0,1-2.313-2.313A34.508,34.508,0,0,1,7.878,21a34.637,34.637,0,0,1,.541-6.312,3.355,3.355,0,0,1,2.313-2.335C12.785,11.813,21,11.813,21,11.813s8.215,0,10.268.562a3.289,3.289,0,0,1,2.313,2.313,32.891,32.891,0,0,1,.54,6.334Zm0,0"/></svg>